<svg width="40" height="40" viewBox="0 0 40 40" fill="none" xmlns="http://www.w3.org/2000/svg">
<rect width="40" height="40" rx="8" fill="#2563EB"/>
<path d="M15.5 24.5L22.5 22.5L24.5 15.5L17.5 17.5L15.5 24.5ZM20 21.5C19.5833 21.5 19.2292 21.3542 18.9375 21.0625C18.6458 20.7708 18.5 20.4167 18.5 20C18.5 19.5833 18.6458 19.2292 18.9375 18.9375C19.2292 18.6458 19.5833 18.5 20 18.5C20.4167 18.5 20.7708 18.6458 21.0625 18.9375C21.3542 19.2292 21.5 19.5833 21.5 20C21.5 20.4167 21.3542 20.7708 21.0625 21.0625C20.7708 21.3542 20.4167 21.5 20 21.5ZM20 30C18.6167 30 17.3167 29.7375 16.1 29.2125C14.8833 28.6875 13.825 27.975 12.925 27.075C12.025 26.175 11.3125 25.1167 10.7875 23.9C10.2625 22.6833 10 21.3833 10 20C10 18.6167 10.2625 17.3167 10.7875 16.1C11.3125 14.8833 12.025 13.825 12.925 12.925C13.825 12.025 14.8833 11.3125 16.1 10.7875C17.3167 10.2625 18.6167 10 20 10C21.3833 10 22.6833 10.2625 23.9 10.7875C25.1167 11.3125 26.175 12.025 27.075 12.925C27.975 13.825 28.6875 14.8833 29.2125 16.1C29.7375 17.3167 30 18.6167 30 20C30 21.3833 29.7375 22.6833 29.2125 23.9C28.6875 25.1167 27.975 26.175 27.075 27.075C26.175 27.975 25.1167 28.6875 23.9 29.2125C22.6833 29.7375 21.3833 30 20 30Z" fill="white"/>
</svg>
